<svg width="14" height="14" viewBox="0 0 14 14" fill="none" xmlns="http://www.w3.org/2000/svg">
<path d="M7.0026 13.6693C3.3206 13.6693 0.335938 10.6846 0.335938 7.0026C0.335938 3.3206 3.3206 0.335938 7.0026 0.335938C10.6846 0.335938 13.6693 3.3206 13.6693 7.0026C13.6693 10.6846 10.6846 13.6693 7.0026 13.6693ZM4.33594 7.66927C4.33594 8.37652 4.61689 9.05479 5.11699 9.55489C5.61708 10.055 6.29536 10.3359 7.0026 10.3359C7.70985 10.3359 8.38813 10.055 8.88822 9.55489C9.38832 9.05479 9.66927 8.37652 9.66927 7.66927H4.33594ZM4.33594 6.33594C4.60115 6.33594 4.85551 6.23058 5.04304 6.04304C5.23058 5.85551 5.33594 5.60115 5.33594 5.33594C5.33594 5.07072 5.23058 4.81637 5.04304 4.62883C4.85551 4.44129 4.60115 4.33594 4.33594 4.33594C4.07072 4.33594 3.81637 4.44129 3.62883 4.62883C3.44129 4.81637 3.33594 5.07072 3.33594 5.33594C3.33594 5.60115 3.44129 5.85551 3.62883 6.04304C3.81637 6.23058 4.07072 6.33594 4.33594 6.33594ZM9.66927 6.33594C9.93449 6.33594 10.1888 6.23058 10.3764 6.04304C10.5639 5.85551 10.6693 5.60115 10.6693 5.33594C10.6693 5.07072 10.5639 4.81637 10.3764 4.62883C10.1888 4.44129 9.93449 4.33594 9.66927 4.33594C9.40405 4.33594 9.1497 4.44129 8.96216 4.62883C8.77463 4.81637 8.66927 5.07072 8.66927 5.33594C8.66927 5.60115 8.77463 5.85551 8.96216 6.04304C9.1497 6.23058 9.40405 6.33594 9.66927 6.33594Z" fill="#171717"/>
</svg>
